<svg width="33" height="32" viewBox="0 0 33 32" fill="none" xmlns="http://www.w3.org/2000/svg">
<g clip-path="url(#clip0_82_993)">
<path fill-rule="evenodd" clip-rule="evenodd" d="M0.5 7C0.5 6.73478 0.605357 6.48043 0.792893 6.29289C0.98043 6.10536 1.23478 6 1.5 6H2.5C6.904 6 10.154 8.48 12.248 10.836C13.228 11.94 13.978 13.04 14.5 13.9C15.02 13.04 15.772 11.94 16.752 10.836C18.846 8.48 22.096 6 26.5 6V8C22.904 8 20.154 10.02 18.248 12.164C17.2174 13.3313 16.3323 14.6194 15.612 16C16.3316 17.3805 17.2161 18.6686 18.246 19.836C20.156 21.98 22.908 24 26.5 24V26C22.096 26 18.846 23.52 16.752 21.164C15.911 20.2122 15.1573 19.1868 14.5 18.1C13.98 18.96 13.228 20.06 12.248 21.164C10.154 23.52 6.904 26 2.5 26H1.5C1.23478 26 0.98043 25.8946 0.792893 25.7071C0.605357 25.5196 0.5 25.2652 0.5 25C0.5 24.7348 0.605357 24.4804 0.792893 24.2929C0.98043 24.1054 1.23478 24 1.5 24H2.5C6.096 24 8.846 21.98 10.752 19.836C11.7826 18.6687 12.6677 17.3806 13.388 16C12.6684 14.6195 11.7839 13.3314 10.754 12.164C8.844 10.02 6.092 8 2.5 8H1.5C1.23478 8 0.98043 7.89464 0.792893 7.70711C0.605357 7.51957 0.5 7.26522 0.5 7Z" fill="black"/>
<path d="M26.5 10.9321V3.06805C26.5 2.97304 26.5271 2.88001 26.5781 2.79985C26.6291 2.71969 26.7019 2.65572 26.788 2.61543C26.874 2.57514 26.9697 2.56019 27.064 2.57235C27.1582 2.5845 27.247 2.62325 27.32 2.68405L32.04 6.61605C32.28 6.81605 32.28 7.18405 32.04 7.38405L27.32 11.3161C27.247 11.3769 27.1582 11.4156 27.064 11.4278C26.9697 11.4399 26.874 11.425 26.788 11.3847C26.7019 11.3444 26.6291 11.2804 26.5781 11.2002C26.5271 11.1201 26.5 11.0271 26.5 10.9321V10.9321ZM26.5 28.9321V21.0681C26.5 20.973 26.5271 20.88 26.5781 20.7999C26.6291 20.7197 26.7019 20.6557 26.788 20.6154C26.874 20.5751 26.9697 20.5602 27.064 20.5723C27.1582 20.5845 27.247 20.6232 27.32 20.6841L32.04 24.6161C32.28 24.8161 32.28 25.1841 32.04 25.3841L27.32 29.3161C27.247 29.3769 27.1582 29.4156 27.064 29.4278C26.9697 29.4399 26.874 29.425 26.788 29.3847C26.7019 29.3444 26.6291 29.2804 26.5781 29.2002C26.5271 29.1201 26.5 29.0271 26.5 28.9321V28.9321Z" fill="black"/>
</g>
<defs>
<clipPath id="clip0_82_993">
<rect x="0.5" width="32" height="32" rx="16" fill="white"/>
</clipPath>
</defs>
</svg>
